HIERARCHY
ROOT pelvis
{
  OFFSET 0 100 0
  CHANNELS 6 Xposition Yposition Zposition Zrotation Xrotation Yrotation
  JOINT pelvis_right_femur
  {
    OFFSET -10.78128 -3.44521 -0.5502486
    CHANNELS 3 Zrotation Xrotation Yrotation
    JOINT right_femur_tibia
    {
      OFFSET -0.8047443 -44.0398 -0.1307829
      CHANNELS 3 Zrotation Xrotation Yrotation
      JOINT right_tibia_foot
      {
        OFFSET 3.006224 -47.83518 -5
        CHANNELS 3 Zrotation Xrotation Yrotation
        End Site
        {
          OFFSET 0 -5 15
        }
      }
    }
  }
  JOINT pelvis_left_femur
  {
    OFFSET 10.78128 -3.44521 -0.5502486
    CHANNELS 3 Zrotation Xrotation Yrotation
    JOINT left_femur_tibia
    {
      OFFSET 0.8047443 -44.0398 -0.1307829
      CHANNELS 3 Zrotation Xrotation Yrotation
      JOINT left_tibia_foot
      {
        OFFSET -4.370144 -48.10324 -4.275266
        CHANNELS 3 Zrotation Xrotation Yrotation
        End Site
        {
          OFFSET 0 -5 15
        }
      }
    }
  }
  JOINT pelvis_spine1
  {
    OFFSET 0 6.468898 -3.129235
    CHANNELS 3 Zrotation Xrotation Yrotation
    JOINT spine1
    {
      OFFSET 0 23.15396 4.99043
      CHANNELS 3 Zrotation Xrotation Yrotation
      JOINT spine2
      {
        OFFSET 0 20.79997 -5.064912
        CHANNELS 3 Zrotation Xrotation Yrotation
        JOINT neck
        {
          OFFSET 0 14.38658 9.616178
          CHANNELS 3 Zrotation Xrotation Yrotation
          End Site
          {
            OFFSET 0 20 0
          }
        }
      }
      JOINT right_manubrium
      {
        OFFSET -5.722621 16.35077 3.967754
        CHANNELS 3 Zrotation Xrotation Yrotation
        JOINT right_clavicle
        {
          OFFSET -13.16364 1.694482 -4.693211
          CHANNELS 3 Zrotation Xrotation Yrotation
          JOINT right_humerus
          {
            OFFSET -28.5034 -0.3100689 -2.792744
            CHANNELS 3 Zrotation Xrotation Yrotation
            JOINT right_radius
            {
              OFFSET -25.15693 0.02248979 -1.271978
              CHANNELS 3 Zrotation Xrotation Yrotation
              End Site
              {
                OFFSET -15 0 0
              }
            }
          }
        }
      }
      JOINT left_manubrium
      {
        OFFSET 5.722621 16.35077 3.967754
        CHANNELS 3 Zrotation Xrotation Yrotation
        JOINT left_clavicle
        {
          OFFSET 13.16364 1.694482 -4.693211
          CHANNELS 3 Zrotation Xrotation Yrotation
          JOINT left_humerus
          {
            OFFSET 29.39168 -1.063119 -2.237045
            CHANNELS 3 Zrotation Xrotation Yrotation
            JOINT left_radius
            {
              OFFSET 24.59957 -0.9528479 0.9047498
              CHANNELS 3 Zrotation Xrotation Yrotation
              End Site
              {
                OFFSET 15 -0 -0
              }
            }
          }
        }
      }
    }
  }
}
MOTION
Frames: 7
Frame Time: 0.0416666666667
0 103.5113 0 0.4909423 -0.3516907 0.764129 2.028084 -23.2637 4.695842 -0 31.85995 -0 -2.893517 -8.475157 -3.661936 -6.165293 12.06003 -18.08012 0 -5.030031 0 2.074701 -22.36638 20.83894 -3.353403 -1.449522 3.449966 1.647931 8.178793 -7.451898 1.371412 21.54262 7.800919 3.358357 -22.4886 9.651352 4.756209 -17.91782 10.40686 86.0323 33.76859 -18.42116 -0 0 15.3527 -13.41109 10.83035 7.722452 7.006808 -19.95169 -2.197101 -89.84189 28.74363 16.69095 0 0 -20.35427 3.224116 13.41891 10.71629
0.5630195 102.6617 3.572037 0.6446286 -0.7274789 1.587843 1.644518 -21.95036 4.753956 -0 34.27815 -0 -2.368881 -7.982574 -3.790345 -6.328443 11.4855 -17.97473 0 -4.847985 0 1.644191 -22.19639 20.84282 -3.462892 -1.358257 3.495001 1.45847 8.115235 -7.228332 1.428931 21.65468 7.833677 3.334483 -22.17949 9.713434 4.795499 -17.78498 10.32492 85.73595 33.57625 -17.85901 -0 0 15.58193 -13.99205 10.97784 8.040739 6.870606 -19.49107 -2.173158 -89.94993 28.99145 16.81073 0 0 -19.57415 2.631397 13.04277 11.4467
0.9632265 101.6196 6.899002 0.1095454 0.5029989 2.169483 3.143008 -26.55231 4.735461 -0 25.42793 -0 -3.970648 -9.724891 -3.561171 -5.712458 13.54904 -18.05748 0 -3.451693 0 2.611837 -22.53307 20.46944 -2.999443 -1.596566 3.347572 2.116944 8.320236 -8.019687 1.255715 21.27598 7.702361 3.392486 -23.11986 9.486818 4.690778 -17.9885 10.60034 86.9279 34.21202 -20.09292 -0 0 14.4748 -12.07561 10.66638 6.870039 7.313207 -21.0908 -2.241118 -89.35075 28.23702 15.98008 0 0 -22.6096 4.49003 14.0943 9.168772
1.261666 100.3572 9.999487 -0.227095 1.341558 2.635136 4.065552 -29.28022 4.893024 -0 20.20377 -0 -4.846284 -11.05011 -3.428555 -5.350821 14.64686 -18.25239 0 -3.225367 0 3.259581 -22.83991 20.37121 -2.757218 -1.746948 3.287487 2.521094 8.379593 -8.485387 1.147731 21.02888 7.646146 3.430729 -23.71971 9.38302 4.71029 -18.14933 10.76184 87.49753 34.75794 -21.33337 -0 0 13.98686 -10.8301 10.47034 6.173693 7.592745 -21.96855 -2.201609 -89.13657 27.95333 15.67139 0 0 -24.35479 5.507909 14.71243 7.96203
1.449732 99.10788 13.25199 -0.3976271 1.251639 2.982568 4.705725 -30.56543 4.830754 -0 16.93671 -0 -5.284133 -10.82195 -3.647948 -5.094448 15.56887 -17.54733 -0 1.265858 -0 2.722621 -22.30719 19.5057 -2.426448 -1.700392 3.196284 2.676782 8.590632 -8.738344 1.140985 20.99244 7.517172 3.400543 -23.71931 9.207965 4.477107 -17.82265 10.84203 88.46719 34.36093 -22.54911 -0 0 12.86275 -10.71283 10.59989 5.783093 7.636326 -22.63084 -2.411949 -88.3718 27.35557 14.5119 0 0 -25.7441 6.106568 14.66402 7.14974
1.558411 98.00684 16.81691 -0.441829 0.7574639 3.241558 5.061719 -30.82774 4.705018 -0 15.36907 -0 -5.353852 -9.989067 -3.988731 -4.958969 16.13935 -16.58061 -0 6.763062 -0 1.726805 -21.48198 18.4956 -2.13357 -1.564054 3.122142 2.677146 8.806606 -8.824857 1.186416 21.06112 7.388332 3.344583 -23.42591 9.048497 4.20499 -17.32748 10.8645 89.33457 33.65212 -23.42593 -0 0 11.72721 -11.14788 10.88582 5.62809 7.552953 -23.00429 -2.671388 -87.56637 26.79597 13.25137 0 0 -26.63455 6.290623 14.29477 6.812317
1.60513 97.16787 20.85281 -0.382867 -0.1365248 3.427501 5.22749 -30.16685 4.500676 -0 14.95882 -0 -5.123646 -8.595772 -4.465618 -4.895723 16.37682 -15.25324 -0 13.79565 -0 0.2466134 -20.2578 17.27502 -1.830663 -1.334573 3.067555 2.544129 9.057072 -8.773011 1.280806 21.22414 7.236586 3.259138 -22.84937 8.876016 3.861064 -16.65326 10.84798 90.18986 32.59818 -24.07827 -0 0 10.47783 -12.11002 11.33993 5.669615 7.348573 -23.17381 -3.001372 -86.6641 26.18096 11.80949 0 0 -27.18673 6.147092 13.61536 6.833031
